<?xml version="1.0" encoding="utf-8"?>
<!-- Generator: Adobe Illustrator 14.0.0, SVG Export Plug-In . SVG Version: 6.00 Build 43363)  -->
<!DOCTYPE svg PUBLIC "-//W3C//DTD SVG 1.0//EN" "http://www.w3.org/TR/2001/REC-SVG-20010904/DTD/svg10.dtd">
<svg version="1.0" id="Layer_1" xmlns="http://www.w3.org/2000/svg" xmlns:xlink="http://www.w3.org/1999/xlink" x="0px" y="0px"
	 width="50px" height="50px" viewBox="0 0 50 50" enable-background="new 0 0 50 50" xml:space="preserve">
<g>
	<path fill="#E2E2E2" d="M15.489,2.438C18.512,1.146,21.682,0.5,25,0.5c3.317,0,6.488,0.646,9.511,1.938s5.63,3.035,7.823,5.228
		c2.193,2.193,3.936,4.801,5.229,7.823C48.854,18.512,49.5,21.682,49.5,25c0,3.317-0.646,6.488-1.938,9.511
		c-1.293,3.022-3.035,5.63-5.229,7.823s-4.801,3.936-7.823,5.229C31.488,48.854,28.317,49.5,25,49.5
		c-3.318,0-6.488-0.646-9.511-1.938c-3.022-1.293-5.63-3.035-7.823-5.229c-2.193-2.193-3.936-4.801-5.228-7.823S0.5,28.317,0.5,25
		c0-3.318,0.646-6.488,1.938-9.511c1.292-3.022,3.035-5.63,5.228-7.823C9.859,5.473,12.467,3.73,15.489,2.438z M7.51,25
		c0,3.461,0.941,6.636,2.823,9.522l24.189-24.189C31.636,8.451,28.461,7.51,25,7.51c-2.376,0-4.646,0.458-6.807,1.375
		c-2.162,0.917-4.024,2.158-5.587,3.721s-2.803,3.425-3.721,5.587C7.969,20.354,7.51,22.624,7.51,25z M25,42.49
		c2.377,0,4.646-0.459,6.807-1.376s4.023-2.157,5.587-3.721s2.804-3.426,3.721-5.587S42.49,27.377,42.49,25
		c0-3.461-0.941-6.635-2.824-9.522L15.478,39.666C18.365,41.549,21.539,42.49,25,42.49z"/>
</g>
</svg>
